<svg xmlns="http://www.w3.org/2000/svg" fill="#D2A42B" width="800px" height="800px" viewBox="0 0 24 24"><g id="SVGRepo_bgCarrier" stroke-width="0"></g><g id="SVGRepo_tracerCarrier" stroke-linecap="round" stroke-linejoin="round"></g><g id="SVGRepo_iconCarrier"><title></title><g data-name="Layer 2" id="Layer_2"><path d="M12,22A10,10,0,1,0,2,12,10,10,0,0,0,12,22Zm1.08-2.08a8,8,0,0,1,6.84-6.84A8,8,0,0,1,13.08,19.92Zm6.86-8.86a10,10,0,0,0-8.88,8.88,8,8,0,0,1-7-7,10,10,0,0,0,8.88-8.88A8,8,0,0,1,19.94,11.06Zm-9-7a8,8,0,0,1-6.84,6.84A8,8,0,0,1,10.92,4.08Z"></path></g></g></svg>